<mxfile host="65bd71144e">
    <diagram id="tgnX6njgTuQziLs_TpqI" name="Page-1">
        <mxGraphModel dx="2011" dy="1620" grid="1" gridSize="10" guides="1" tooltips="1" connect="1" arrows="1" fold="1" page="1" pageScale="1" pageWidth="1654" pageHeight="1169" math="0" shadow="0">
            <root>
                <mxCell id="0"/>
                <mxCell id="1" parent="0"/>
                <mxCell id="2" value="DiscountService" style="swimlane;" parent="1" vertex="1">
                    <mxGeometry x="530" y="250" width="560" height="570" as="geometry"/>
                </mxCell>
                <mxCell id="3" value="&lt;table border=&quot;0&quot; cellpadding=&quot;0&quot; cellspacing=&quot;0&quot; dir=&quot;RTL&quot; width=&quot;229&quot; style=&quot;border-collapse: collapse ; width: 172pt ; font-size: 36px&quot;&gt; &lt;colgroup&gt;&lt;col width=&quot;229&quot; style=&quot;width: 172pt&quot;&gt;&lt;/colgroup&gt; &lt;tbody&gt;&lt;tr style=&quot;height: 13.2pt&quot;&gt;  &lt;td height=&quot;18&quot; class=&quot;xl65&quot; dir=&quot;LTR&quot; align=&quot;left&quot; width=&quot;229&quot; style=&quot;height: 13.2pt ; width: 172pt&quot;&gt;&lt;font style=&quot;font-size: 36px&quot;&gt;&lt;font color=&quot;#ffffff&quot; style=&quot;font-size: 36px&quot;&gt;CreateDiscount&lt;/font&gt;&lt;br&gt;&lt;/font&gt;&lt;/td&gt; &lt;/tr&gt; &lt;tr style=&quot;height: 13.2pt&quot;&gt;  &lt;td height=&quot;18&quot; class=&quot;xl65&quot; dir=&quot;LTR&quot; align=&quot;left&quot; style=&quot;height: 13.2pt&quot;&gt;&lt;font color=&quot;#ffffff&quot; style=&quot;font-size: 36px&quot;&gt;CanApplyDiscountToOrder&lt;/font&gt;&lt;/td&gt;&lt;/tr&gt;&lt;tr style=&quot;height: 13.2pt&quot;&gt;&lt;td height=&quot;18&quot; class=&quot;xl65&quot; dir=&quot;LTR&quot; align=&quot;left&quot; style=&quot;height: 13.2pt&quot;&gt;&lt;font style=&quot;font-size: 36px&quot; color=&quot;#ffffff&quot;&gt;EditDiscount&lt;/font&gt;&lt;/td&gt; &lt;/tr&gt; &lt;tr style=&quot;height: 13.2pt&quot;&gt;  &lt;td height=&quot;18&quot; class=&quot;xl65&quot; dir=&quot;LTR&quot; align=&quot;left&quot; style=&quot;height: 13.2pt&quot;&gt;&lt;font color=&quot;#ffffff&quot; style=&quot;font-size: 36px&quot;&gt;GetDiscountById&lt;/font&gt;&lt;/td&gt;&lt;/tr&gt;&lt;tr style=&quot;height: 13.2pt&quot;&gt;&lt;td height=&quot;18&quot; class=&quot;xl65&quot; dir=&quot;LTR&quot; align=&quot;left&quot; style=&quot;height: 13.2pt&quot;&gt;&lt;font color=&quot;#ffffff&quot; style=&quot;font-size: 36px&quot;&gt;GetAllDiscounts&lt;/font&gt;&lt;/td&gt;&lt;/tr&gt;&lt;tr style=&quot;height: 13.2pt&quot;&gt;&lt;td height=&quot;18&quot; class=&quot;xl65&quot; dir=&quot;LTR&quot; align=&quot;left&quot; style=&quot;height: 13.2pt&quot;&gt;&lt;font style=&quot;font-size: 36px&quot; color=&quot;#ffffff&quot;&gt;UpdateDiscount&lt;/font&gt;&lt;/td&gt; &lt;/tr&gt; &lt;tr style=&quot;height: 13.2pt&quot;&gt;  &lt;td height=&quot;18&quot; class=&quot;xl65&quot; dir=&quot;LTR&quot; align=&quot;left&quot; style=&quot;height: 13.2pt&quot;&gt;&lt;font style=&quot;font-size: 36px&quot;&gt;&lt;font color=&quot;#ffffff&quot; style=&quot;font-size: 36px&quot;&gt;GetDiscountUsageHistoryById&lt;/font&gt;&lt;br&gt;&lt;/font&gt;&lt;/td&gt; &lt;/tr&gt; &lt;tr style=&quot;height: 13.2pt&quot;&gt;  &lt;td height=&quot;18&quot; class=&quot;xl65&quot; dir=&quot;LTR&quot; align=&quot;left&quot; style=&quot;height: 13.2pt&quot;&gt;&lt;font style=&quot;font-size: 36px&quot;&gt;&lt;font color=&quot;#ffffff&quot; style=&quot;font-size: 36px&quot;&gt;GetAllDiscountUsageHistory&lt;/font&gt;&lt;br&gt;&lt;/font&gt;&lt;/td&gt; &lt;/tr&gt; &lt;tr style=&quot;height: 13.2pt&quot;&gt;  &lt;td height=&quot;18&quot; class=&quot;xl65&quot; dir=&quot;LTR&quot; align=&quot;left&quot; style=&quot;height: 13.2pt&quot;&gt;&lt;font style=&quot;font-size: 36px&quot;&gt;&lt;font color=&quot;#ffffff&quot; style=&quot;font-size: 36px&quot;&gt;InsertDiscountUsageHistory&lt;/font&gt;&lt;br&gt;&lt;/font&gt;&lt;/td&gt; &lt;/tr&gt; &lt;tr style=&quot;height: 13.2pt&quot;&gt;  &lt;td height=&quot;18&quot; class=&quot;xl65&quot; dir=&quot;LTR&quot; align=&quot;left&quot; style=&quot;height: 13.2pt&quot;&gt;&lt;font style=&quot;font-size: 36px&quot;&gt;&lt;font color=&quot;#ffffff&quot; style=&quot;font-size: 36px&quot;&gt;DeleteDiscountUsageHistory&lt;/font&gt;&lt;br&gt;&lt;/font&gt;&lt;/td&gt; &lt;/tr&gt; &lt;tr style=&quot;height: 13.2pt&quot;&gt;  &lt;td height=&quot;18&quot; class=&quot;xl65&quot; dir=&quot;LTR&quot; align=&quot;left&quot; style=&quot;height: 13.2pt&quot;&gt;&lt;font style=&quot;font-size: 36px&quot;&gt;&lt;font color=&quot;#ffffff&quot; style=&quot;font-size: 36px&quot;&gt;SetdiscountLimitation&lt;/font&gt;&lt;br&gt;&lt;/font&gt;&lt;/td&gt; &lt;/tr&gt; &lt;tr style=&quot;height: 13.2pt&quot;&gt;  &lt;td height=&quot;18&quot; class=&quot;xl65&quot; dir=&quot;LTR&quot; align=&quot;left&quot; style=&quot;height: 13.2pt&quot;&gt;&lt;font style=&quot;font-size: 36px&quot;&gt;&lt;br&gt;&lt;/font&gt;&lt;/td&gt;&lt;/tr&gt;&lt;/tbody&gt;&lt;/table&gt;" style="text;html=1;align=center;verticalAlign=middle;resizable=0;points=[];autosize=1;strokeColor=none;fillColor=none;perimeterSpacing=1;" parent="2" vertex="1">
                    <mxGeometry x="10" y="220" width="500" height="220" as="geometry"/>
                </mxCell>
                <mxCell id="16" style="edgeStyle=none;html=1;exitX=1;exitY=0.5;exitDx=0;exitDy=0;fontSize=25;" parent="1" source="8" edge="1">
                    <mxGeometry relative="1" as="geometry">
                        <mxPoint x="550" y="330" as="targetPoint"/>
                    </mxGeometry>
                </mxCell>
                <mxCell id="8" value="&lt;font style=&quot;font-size: 25px&quot;&gt;ساخت کد تخفیف&amp;nbsp;&lt;/font&gt;" style="rounded=1;whiteSpace=wrap;html=1;" parent="1" vertex="1">
                    <mxGeometry x="110" y="230" width="240" height="80" as="geometry"/>
                </mxCell>
                <mxCell id="28" style="edgeStyle=none;html=1;exitX=0;exitY=0.5;exitDx=0;exitDy=0;entryX=0.931;entryY=1.018;entryDx=0;entryDy=0;entryPerimeter=0;fontSize=25;" parent="1" source="9" target="3" edge="1">
                    <mxGeometry relative="1" as="geometry"/>
                </mxCell>
                <mxCell id="9" value="&lt;font style=&quot;font-size: 19px&quot;&gt;قرار دادن تخفیفات استفاده شده&amp;nbsp;&lt;/font&gt;" style="rounded=1;whiteSpace=wrap;html=1;" parent="1" vertex="1">
                    <mxGeometry x="1220" y="630" width="270" height="90" as="geometry"/>
                </mxCell>
                <mxCell id="27" style="edgeStyle=none;html=1;exitX=0;exitY=0.5;exitDx=0;exitDy=0;entryX=0.938;entryY=0.815;entryDx=0;entryDy=0;entryPerimeter=0;fontSize=25;" parent="1" source="10" target="3" edge="1">
                    <mxGeometry relative="1" as="geometry"/>
                </mxCell>
                <mxCell id="10" value="&lt;font style=&quot;font-size: 19px&quot;&gt;نمایش تمامی تخفیفات استفاده شده&amp;nbsp;&lt;/font&gt;" style="rounded=1;whiteSpace=wrap;html=1;" parent="1" vertex="1">
                    <mxGeometry x="1210" y="430" width="240" height="110" as="geometry"/>
                </mxCell>
                <mxCell id="26" style="edgeStyle=none;html=1;exitX=0;exitY=0.5;exitDx=0;exitDy=0;entryX=1.008;entryY=0.592;entryDx=0;entryDy=0;entryPerimeter=0;fontSize=25;" parent="1" source="11" target="3" edge="1">
                    <mxGeometry relative="1" as="geometry"/>
                </mxCell>
                <mxCell id="11" value="&lt;span style=&quot;font-size: 19px&quot;&gt;نمایش تاریخچه تخفیفات بر اساس شناسه&amp;nbsp;&lt;/span&gt;" style="rounded=1;whiteSpace=wrap;html=1;" parent="1" vertex="1">
                    <mxGeometry x="1200" y="270" width="220" height="100" as="geometry"/>
                </mxCell>
                <mxCell id="17" style="edgeStyle=none;html=1;exitX=1;exitY=0.5;exitDx=0;exitDy=0;fontSize=25;" parent="1" source="12" edge="1">
                    <mxGeometry relative="1" as="geometry">
                        <mxPoint x="540" y="390" as="targetPoint"/>
                    </mxGeometry>
                </mxCell>
                <mxCell id="12" value="&lt;font style=&quot;font-size: 19px&quot;&gt;اضافه کردن کد تخفیف به سفارش&lt;/font&gt;" style="rounded=1;whiteSpace=wrap;html=1;" parent="1" vertex="1">
                    <mxGeometry x="150" y="360" width="220" height="100" as="geometry"/>
                </mxCell>
                <mxCell id="20" style="edgeStyle=none;html=1;exitX=1;exitY=0.5;exitDx=0;exitDy=0;fontSize=25;" parent="1" source="13" edge="1">
                    <mxGeometry relative="1" as="geometry">
                        <mxPoint x="540" y="430" as="targetPoint"/>
                    </mxGeometry>
                </mxCell>
                <mxCell id="13" value="&lt;font style=&quot;font-size: 19px&quot;&gt;ویرایش کد تخفیف&amp;nbsp;&lt;/font&gt;" style="rounded=1;whiteSpace=wrap;html=1;" parent="1" vertex="1">
                    <mxGeometry x="150" y="490" width="180" height="90" as="geometry"/>
                </mxCell>
                <mxCell id="21" style="edgeStyle=none;html=1;exitX=1;exitY=0.5;exitDx=0;exitDy=0;entryX=-0.004;entryY=0.023;entryDx=0;entryDy=0;entryPerimeter=0;fontSize=25;" parent="1" source="14" target="3" edge="1">
                    <mxGeometry relative="1" as="geometry"/>
                </mxCell>
                <mxCell id="14" value="&lt;font style=&quot;font-size: 19px&quot;&gt;گرفتن کد تخفیف با شناسه&amp;nbsp;&lt;/font&gt;" style="rounded=1;whiteSpace=wrap;html=1;" parent="1" vertex="1">
                    <mxGeometry x="160" y="620" width="170" height="70" as="geometry"/>
                </mxCell>
                <mxCell id="23" style="edgeStyle=none;html=1;exitX=1;exitY=0.5;exitDx=0;exitDy=0;entryX=0.006;entryY=0.237;entryDx=0;entryDy=0;entryPerimeter=0;fontSize=25;" parent="1" source="22" target="3" edge="1">
                    <mxGeometry relative="1" as="geometry"/>
                </mxCell>
                <mxCell id="22" value="&lt;span style=&quot;font-size: 19px&quot;&gt;نمایش تمامی کد های تخفیف&lt;/span&gt;" style="rounded=1;whiteSpace=wrap;html=1;" parent="1" vertex="1">
                    <mxGeometry x="130" y="740" width="200" height="70" as="geometry"/>
                </mxCell>
                <mxCell id="29" style="edgeStyle=none;html=1;exitX=0;exitY=0.5;exitDx=0;exitDy=0;fontSize=25;" parent="1" source="24" edge="1">
                    <mxGeometry relative="1" as="geometry">
                        <mxPoint x="1030" y="760" as="targetPoint"/>
                    </mxGeometry>
                </mxCell>
                <mxCell id="24" value="&lt;font style=&quot;font-size: 19px&quot;&gt;حذف تاریخچه تخفیفات استفاده شده&amp;nbsp;&lt;/font&gt;" style="rounded=1;whiteSpace=wrap;html=1;" parent="1" vertex="1">
                    <mxGeometry x="1220" y="770" width="270" height="90" as="geometry"/>
                </mxCell>
                <mxCell id="30" style="edgeStyle=none;html=1;exitX=0.75;exitY=0;exitDx=0;exitDy=0;entryX=-0.001;entryY=0.462;entryDx=0;entryDy=0;entryPerimeter=0;fontSize=19;" parent="1" source="25" target="3" edge="1">
                    <mxGeometry relative="1" as="geometry"/>
                </mxCell>
                <mxCell id="25" value="&lt;font style=&quot;font-size: 19px&quot;&gt;بروزرسانی تخفیف&lt;/font&gt;" style="rounded=1;whiteSpace=wrap;html=1;" parent="1" vertex="1">
                    <mxGeometry x="250" y="860" width="170" height="90" as="geometry"/>
                </mxCell>
                <mxCell id="32" style="edgeStyle=none;html=1;exitX=0.5;exitY=0;exitDx=0;exitDy=0;" edge="1" parent="1" source="31">
                    <mxGeometry relative="1" as="geometry">
                        <mxPoint x="860" y="800" as="targetPoint"/>
                    </mxGeometry>
                </mxCell>
                <mxCell id="31" value="&lt;span style=&quot;font-size: 19px&quot;&gt;ایجاد محدودیت در تخفیفات&lt;/span&gt;" style="rounded=1;whiteSpace=wrap;html=1;" vertex="1" parent="1">
                    <mxGeometry x="680" y="890" width="170" height="90" as="geometry"/>
                </mxCell>
            </root>
        </mxGraphModel>
    </diagram>
</mxfile>